<mxfile host="app.diagrams.net" modified="2023-12-06T12:52:53.778Z" agent="Mozilla/5.0 (Windows NT 10.0; Win64; x64) AppleWebKit/537.36 (KHTML, like Gecko) Chrome/119.0.0.0 Safari/537.36 Edg/119.0.0.0" etag="XT32ndVaFx2NZU04O1Ld" version="22.1.5" type="device" pages="4">
  <diagram id="jziwE1I9XEsc8JKGSchP" name="Flowchart">
    <mxGraphModel dx="2864" dy="1133" grid="1" gridSize="10" guides="1" tooltips="1" connect="1" arrows="1" fold="1" page="1" pageScale="1" pageWidth="827" pageHeight="1169" math="0" shadow="0">
      <root>
        <mxCell id="0" />
        <mxCell id="1" parent="0" />
        <mxCell id="joNV0J1uttv2Q91yzhjy-1" value="Start" style="ellipse;whiteSpace=wrap;html=1;" parent="1" vertex="1">
          <mxGeometry x="550" y="530" width="120" height="80" as="geometry" />
        </mxCell>
        <mxCell id="joNV0J1uttv2Q91yzhjy-3" value="INPUT&lt;br&gt;username" style="shape=parallelogram;html=1;strokeWidth=2;perimeter=parallelogramPerimeter;whiteSpace=wrap;rounded=1;arcSize=12;size=0.23;" parent="1" vertex="1">
          <mxGeometry x="540" y="790" width="140" height="60" as="geometry" />
        </mxCell>
        <mxCell id="y3ASRmUpmLl_MCogKMLo-6" style="edgeStyle=orthogonalEdgeStyle;rounded=0;orthogonalLoop=1;jettySize=auto;html=1;exitX=0.5;exitY=1;exitDx=0;exitDy=0;entryX=0.5;entryY=0;entryDx=0;entryDy=0;" parent="1" source="joNV0J1uttv2Q91yzhjy-7" target="joNV0J1uttv2Q91yzhjy-3" edge="1">
          <mxGeometry relative="1" as="geometry" />
        </mxCell>
        <mxCell id="joNV0J1uttv2Q91yzhjy-7" value="DEFINE&lt;br&gt;&amp;nbsp;Login" style="shape=process;whiteSpace=wrap;html=1;backgroundOutline=1;" parent="1" vertex="1">
          <mxGeometry x="550" y="670" width="120" height="60" as="geometry" />
        </mxCell>
        <mxCell id="y3ASRmUpmLl_MCogKMLo-2" style="edgeStyle=elbowEdgeStyle;rounded=0;orthogonalLoop=1;jettySize=auto;html=1;exitX=1;exitY=0.5;exitDx=0;exitDy=0;exitPerimeter=0;entryX=1;entryY=0.5;entryDx=0;entryDy=0;" parent="1" source="y3ASRmUpmLl_MCogKMLo-1" target="joNV0J1uttv2Q91yzhjy-3" edge="1">
          <mxGeometry relative="1" as="geometry">
            <Array as="points">
              <mxPoint x="726" y="890" />
            </Array>
          </mxGeometry>
        </mxCell>
        <mxCell id="y3ASRmUpmLl_MCogKMLo-7" style="edgeStyle=orthogonalEdgeStyle;rounded=0;orthogonalLoop=1;jettySize=auto;html=1;exitX=0.5;exitY=1;exitDx=0;exitDy=0;exitPerimeter=0;entryX=0.5;entryY=0;entryDx=0;entryDy=0;" parent="1" source="y3ASRmUpmLl_MCogKMLo-1" target="y3ASRmUpmLl_MCogKMLo-4" edge="1">
          <mxGeometry relative="1" as="geometry" />
        </mxCell>
        <mxCell id="y3ASRmUpmLl_MCogKMLo-1" value="Is username correct?" style="strokeWidth=2;html=1;shape=mxgraph.flowchart.decision;whiteSpace=wrap;" parent="1" vertex="1">
          <mxGeometry x="560" y="910" width="100" height="100" as="geometry" />
        </mxCell>
        <mxCell id="y3ASRmUpmLl_MCogKMLo-4" value="INPUT&lt;br&gt;password" style="shape=parallelogram;html=1;strokeWidth=2;perimeter=parallelogramPerimeter;whiteSpace=wrap;rounded=1;arcSize=12;size=0.23;" parent="1" vertex="1">
          <mxGeometry x="540" y="1070" width="140" height="60" as="geometry" />
        </mxCell>
        <mxCell id="y3ASRmUpmLl_MCogKMLo-5" style="edgeStyle=orthogonalEdgeStyle;rounded=0;orthogonalLoop=1;jettySize=auto;html=1;exitX=0.5;exitY=1;exitDx=0;exitDy=0;entryX=0.5;entryY=0;entryDx=0;entryDy=0;entryPerimeter=0;" parent="1" source="joNV0J1uttv2Q91yzhjy-3" target="y3ASRmUpmLl_MCogKMLo-1" edge="1">
          <mxGeometry relative="1" as="geometry" />
        </mxCell>
        <mxCell id="y3ASRmUpmLl_MCogKMLo-10" style="edgeStyle=elbowEdgeStyle;rounded=0;orthogonalLoop=1;jettySize=auto;html=1;exitX=1;exitY=0.5;exitDx=0;exitDy=0;exitPerimeter=0;entryX=1;entryY=0.5;entryDx=0;entryDy=0;" parent="1" source="y3ASRmUpmLl_MCogKMLo-8" target="y3ASRmUpmLl_MCogKMLo-4" edge="1">
          <mxGeometry relative="1" as="geometry">
            <Array as="points">
              <mxPoint x="726" y="1170" />
            </Array>
          </mxGeometry>
        </mxCell>
        <mxCell id="y3ASRmUpmLl_MCogKMLo-21" style="edgeStyle=orthogonalEdgeStyle;rounded=0;orthogonalLoop=1;jettySize=auto;html=1;exitX=0.5;exitY=1;exitDx=0;exitDy=0;exitPerimeter=0;entryX=0.5;entryY=0;entryDx=0;entryDy=0;" parent="1" source="y3ASRmUpmLl_MCogKMLo-8" target="y3ASRmUpmLl_MCogKMLo-12" edge="1">
          <mxGeometry relative="1" as="geometry" />
        </mxCell>
        <mxCell id="y3ASRmUpmLl_MCogKMLo-8" value="Is password correct?" style="strokeWidth=2;html=1;shape=mxgraph.flowchart.decision;whiteSpace=wrap;" parent="1" vertex="1">
          <mxGeometry x="560" y="1190" width="100" height="100" as="geometry" />
        </mxCell>
        <mxCell id="y3ASRmUpmLl_MCogKMLo-9" style="edgeStyle=orthogonalEdgeStyle;rounded=0;orthogonalLoop=1;jettySize=auto;html=1;exitX=0.5;exitY=1;exitDx=0;exitDy=0;entryX=0.5;entryY=0;entryDx=0;entryDy=0;entryPerimeter=0;" parent="1" source="y3ASRmUpmLl_MCogKMLo-4" target="y3ASRmUpmLl_MCogKMLo-8" edge="1">
          <mxGeometry relative="1" as="geometry" />
        </mxCell>
        <mxCell id="y3ASRmUpmLl_MCogKMLo-22" style="edgeStyle=orthogonalEdgeStyle;rounded=0;orthogonalLoop=1;jettySize=auto;html=1;exitX=0.5;exitY=1;exitDx=0;exitDy=0;entryX=0.5;entryY=0;entryDx=0;entryDy=0;" parent="1" source="y3ASRmUpmLl_MCogKMLo-12" target="y3ASRmUpmLl_MCogKMLo-13" edge="1">
          <mxGeometry relative="1" as="geometry" />
        </mxCell>
        <mxCell id="y3ASRmUpmLl_MCogKMLo-12" value="OUTPUT&lt;br&gt;&quot;Login successful&quot;" style="shape=parallelogram;html=1;strokeWidth=2;perimeter=parallelogramPerimeter;whiteSpace=wrap;rounded=1;arcSize=12;size=0.23;" parent="1" vertex="1">
          <mxGeometry x="540" y="1350" width="140" height="60" as="geometry" />
        </mxCell>
        <mxCell id="y3ASRmUpmLl_MCogKMLo-13" value="DISPLAY&lt;br&gt;Menu" style="rounded=0;whiteSpace=wrap;html=1;" parent="1" vertex="1">
          <mxGeometry x="550" y="1470" width="120" height="60" as="geometry" />
        </mxCell>
        <mxCell id="y3ASRmUpmLl_MCogKMLo-20" style="edgeStyle=orthogonalEdgeStyle;rounded=0;orthogonalLoop=1;jettySize=auto;html=1;exitX=0.5;exitY=1;exitDx=0;exitDy=0;entryX=0.5;entryY=0;entryDx=0;entryDy=0;" parent="1" source="y3ASRmUpmLl_MCogKMLo-14" target="y3ASRmUpmLl_MCogKMLo-17" edge="1">
          <mxGeometry relative="1" as="geometry" />
        </mxCell>
        <mxCell id="y3ASRmUpmLl_MCogKMLo-14" value="DEFINE Menu" style="shape=process;whiteSpace=wrap;html=1;backgroundOutline=1;" parent="1" vertex="1">
          <mxGeometry x="980" y="932.25" width="120" height="60" as="geometry" />
        </mxCell>
        <mxCell id="y3ASRmUpmLl_MCogKMLo-19" style="edgeStyle=orthogonalEdgeStyle;rounded=0;orthogonalLoop=1;jettySize=auto;html=1;exitX=0.5;exitY=1;exitDx=0;exitDy=0;entryX=0.5;entryY=0;entryDx=0;entryDy=0;" parent="1" source="y3ASRmUpmLl_MCogKMLo-17" target="y3ASRmUpmLl_MCogKMLo-18" edge="1">
          <mxGeometry relative="1" as="geometry" />
        </mxCell>
        <mxCell id="y3ASRmUpmLl_MCogKMLo-17" value="DISPLAY&lt;br&gt;Options" style="rounded=0;whiteSpace=wrap;html=1;" parent="1" vertex="1">
          <mxGeometry x="980" y="1052.25" width="120" height="60" as="geometry" />
        </mxCell>
        <mxCell id="y3ASRmUpmLl_MCogKMLo-24" style="edgeStyle=orthogonalEdgeStyle;rounded=0;orthogonalLoop=1;jettySize=auto;html=1;exitX=0.5;exitY=1;exitDx=0;exitDy=0;entryX=0.5;entryY=0;entryDx=0;entryDy=0;" parent="1" source="y3ASRmUpmLl_MCogKMLo-18" target="y3ASRmUpmLl_MCogKMLo-23" edge="1">
          <mxGeometry relative="1" as="geometry" />
        </mxCell>
        <mxCell id="y3ASRmUpmLl_MCogKMLo-18" value="INPUT&lt;br&gt;OptionChoice" style="shape=parallelogram;html=1;strokeWidth=2;perimeter=parallelogramPerimeter;whiteSpace=wrap;rounded=1;arcSize=12;size=0.23;" parent="1" vertex="1">
          <mxGeometry x="970" y="1172.25" width="140" height="60" as="geometry" />
        </mxCell>
        <mxCell id="MGW0zBob_JRBG9ysVH5K-1" style="edgeStyle=orthogonalEdgeStyle;rounded=0;orthogonalLoop=1;jettySize=auto;html=1;exitX=0;exitY=0.5;exitDx=0;exitDy=0;entryX=1;entryY=0.5;entryDx=0;entryDy=0;" parent="1" source="y3ASRmUpmLl_MCogKMLo-23" target="y3ASRmUpmLl_MCogKMLo-25" edge="1">
          <mxGeometry relative="1" as="geometry" />
        </mxCell>
        <mxCell id="MGW0zBob_JRBG9ysVH5K-3" style="edgeStyle=orthogonalEdgeStyle;rounded=0;orthogonalLoop=1;jettySize=auto;html=1;exitX=0.5;exitY=1;exitDx=0;exitDy=0;entryX=0.5;entryY=0;entryDx=0;entryDy=0;" parent="1" source="y3ASRmUpmLl_MCogKMLo-23" target="MGW0zBob_JRBG9ysVH5K-2" edge="1">
          <mxGeometry relative="1" as="geometry" />
        </mxCell>
        <mxCell id="y3ASRmUpmLl_MCogKMLo-23" value="Is OptionChoice == &lt;br&gt;&quot;Book In Garage&quot;?" style="rhombus;whiteSpace=wrap;html=1;" parent="1" vertex="1">
          <mxGeometry x="970" y="1282.25" width="140" height="105.5" as="geometry" />
        </mxCell>
        <mxCell id="y3ASRmUpmLl_MCogKMLo-25" value="DISPLAY BookInGarage" style="rounded=0;whiteSpace=wrap;html=1;" parent="1" vertex="1">
          <mxGeometry x="760" y="1305.25" width="120" height="60" as="geometry" />
        </mxCell>
        <mxCell id="MGW0zBob_JRBG9ysVH5K-5" style="edgeStyle=orthogonalEdgeStyle;rounded=0;orthogonalLoop=1;jettySize=auto;html=1;exitX=0;exitY=0.5;exitDx=0;exitDy=0;entryX=1;entryY=0.5;entryDx=0;entryDy=0;" parent="1" source="MGW0zBob_JRBG9ysVH5K-2" target="MGW0zBob_JRBG9ysVH5K-4" edge="1">
          <mxGeometry relative="1" as="geometry" />
        </mxCell>
        <mxCell id="MGW0zBob_JRBG9ysVH5K-6" style="edgeStyle=elbowEdgeStyle;rounded=0;orthogonalLoop=1;jettySize=auto;html=1;exitX=1;exitY=0.5;exitDx=0;exitDy=0;entryX=1;entryY=0.5;entryDx=0;entryDy=0;" parent="1" source="MGW0zBob_JRBG9ysVH5K-2" target="y3ASRmUpmLl_MCogKMLo-18" edge="1">
          <mxGeometry relative="1" as="geometry">
            <Array as="points">
              <mxPoint x="1160" y="1352.25" />
            </Array>
          </mxGeometry>
        </mxCell>
        <mxCell id="MGW0zBob_JRBG9ysVH5K-2" value="Is OptionChoice == &lt;br&gt;&quot;Order parts&quot;?" style="rhombus;whiteSpace=wrap;html=1;" parent="1" vertex="1">
          <mxGeometry x="970" y="1442.25" width="140" height="105.5" as="geometry" />
        </mxCell>
        <mxCell id="MGW0zBob_JRBG9ysVH5K-4" value="DISPLAY OrderParts" style="rounded=0;whiteSpace=wrap;html=1;" parent="1" vertex="1">
          <mxGeometry x="760" y="1465" width="120" height="60" as="geometry" />
        </mxCell>
        <mxCell id="MGW0zBob_JRBG9ysVH5K-10" style="edgeStyle=orthogonalEdgeStyle;rounded=0;orthogonalLoop=1;jettySize=auto;html=1;exitX=0.5;exitY=1;exitDx=0;exitDy=0;entryX=0.5;entryY=0;entryDx=0;entryDy=0;" parent="1" source="MGW0zBob_JRBG9ysVH5K-7" target="MGW0zBob_JRBG9ysVH5K-9" edge="1">
          <mxGeometry relative="1" as="geometry" />
        </mxCell>
        <mxCell id="MGW0zBob_JRBG9ysVH5K-7" value="DEFINE BookInGarage" style="shape=process;whiteSpace=wrap;html=1;backgroundOutline=1;" parent="1" vertex="1">
          <mxGeometry x="-130" y="872.25" width="120" height="60" as="geometry" />
        </mxCell>
        <mxCell id="MGW0zBob_JRBG9ysVH5K-12" style="edgeStyle=orthogonalEdgeStyle;rounded=0;orthogonalLoop=1;jettySize=auto;html=1;exitX=0.5;exitY=1;exitDx=0;exitDy=0;entryX=0.5;entryY=0;entryDx=0;entryDy=0;" parent="1" source="MGW0zBob_JRBG9ysVH5K-8" target="MGW0zBob_JRBG9ysVH5K-11" edge="1">
          <mxGeometry relative="1" as="geometry" />
        </mxCell>
        <mxCell id="MGW0zBob_JRBG9ysVH5K-8" value="DEFINE OrderParts" style="shape=process;whiteSpace=wrap;html=1;backgroundOutline=1;" parent="1" vertex="1">
          <mxGeometry x="100" y="872.25" width="120" height="60" as="geometry" />
        </mxCell>
        <mxCell id="MGW0zBob_JRBG9ysVH5K-16" style="edgeStyle=orthogonalEdgeStyle;rounded=0;orthogonalLoop=1;jettySize=auto;html=1;exitX=0.5;exitY=1;exitDx=0;exitDy=0;" parent="1" source="MGW0zBob_JRBG9ysVH5K-9" edge="1">
          <mxGeometry relative="1" as="geometry">
            <mxPoint x="-70" y="1151.25" as="targetPoint" />
          </mxGeometry>
        </mxCell>
        <mxCell id="MGW0zBob_JRBG9ysVH5K-9" value="INPUT&lt;br&gt;BookInConfirm" style="shape=parallelogram;html=1;strokeWidth=2;perimeter=parallelogramPerimeter;whiteSpace=wrap;rounded=1;arcSize=12;size=0.23;" parent="1" vertex="1">
          <mxGeometry x="-140" y="1012.25" width="140" height="60" as="geometry" />
        </mxCell>
        <mxCell id="MGW0zBob_JRBG9ysVH5K-15" style="edgeStyle=orthogonalEdgeStyle;rounded=0;orthogonalLoop=1;jettySize=auto;html=1;exitX=0.5;exitY=1;exitDx=0;exitDy=0;entryX=0.5;entryY=0;entryDx=0;entryDy=0;" parent="1" source="MGW0zBob_JRBG9ysVH5K-11" target="MGW0zBob_JRBG9ysVH5K-14" edge="1">
          <mxGeometry relative="1" as="geometry" />
        </mxCell>
        <mxCell id="MGW0zBob_JRBG9ysVH5K-11" value="INPUT&lt;br&gt;OrderConfirm" style="shape=parallelogram;html=1;strokeWidth=2;perimeter=parallelogramPerimeter;whiteSpace=wrap;rounded=1;arcSize=12;size=0.23;" parent="1" vertex="1">
          <mxGeometry x="90" y="1012.25" width="140" height="60" as="geometry" />
        </mxCell>
        <mxCell id="MGW0zBob_JRBG9ysVH5K-20" style="edgeStyle=orthogonalEdgeStyle;rounded=0;orthogonalLoop=1;jettySize=auto;html=1;exitX=0;exitY=0.5;exitDx=0;exitDy=0;entryX=1;entryY=0.5;entryDx=0;entryDy=0;" parent="1" source="MGW0zBob_JRBG9ysVH5K-13" target="MGW0zBob_JRBG9ysVH5K-17" edge="1">
          <mxGeometry relative="1" as="geometry" />
        </mxCell>
        <mxCell id="Im-mvRvTY1rOUcPA_kaz-5" style="edgeStyle=orthogonalEdgeStyle;rounded=0;orthogonalLoop=1;jettySize=auto;html=1;exitX=0.5;exitY=1;exitDx=0;exitDy=0;entryX=0.5;entryY=0;entryDx=0;entryDy=0;" parent="1" source="MGW0zBob_JRBG9ysVH5K-13" target="Im-mvRvTY1rOUcPA_kaz-6" edge="1">
          <mxGeometry relative="1" as="geometry">
            <mxPoint x="-70" y="1332.25" as="targetPoint" />
          </mxGeometry>
        </mxCell>
        <mxCell id="MGW0zBob_JRBG9ysVH5K-13" value="Is BookInConfirm == &lt;br&gt;&quot;Yes&quot;?" style="rhombus;whiteSpace=wrap;html=1;" parent="1" vertex="1">
          <mxGeometry x="-140" y="1151.25" width="140" height="105.5" as="geometry" />
        </mxCell>
        <mxCell id="MGW0zBob_JRBG9ysVH5K-19" style="edgeStyle=orthogonalEdgeStyle;rounded=0;orthogonalLoop=1;jettySize=auto;html=1;exitX=1;exitY=0.5;exitDx=0;exitDy=0;entryX=0;entryY=0.5;entryDx=0;entryDy=0;" parent="1" source="MGW0zBob_JRBG9ysVH5K-14" target="MGW0zBob_JRBG9ysVH5K-18" edge="1">
          <mxGeometry relative="1" as="geometry" />
        </mxCell>
        <mxCell id="Im-mvRvTY1rOUcPA_kaz-4" style="edgeStyle=orthogonalEdgeStyle;rounded=0;orthogonalLoop=1;jettySize=auto;html=1;exitX=0.5;exitY=1;exitDx=0;exitDy=0;entryX=0.5;entryY=0;entryDx=0;entryDy=0;" parent="1" source="MGW0zBob_JRBG9ysVH5K-14" target="Im-mvRvTY1rOUcPA_kaz-3" edge="1">
          <mxGeometry relative="1" as="geometry" />
        </mxCell>
        <mxCell id="MGW0zBob_JRBG9ysVH5K-14" value="Is OrderConfrim == &lt;br&gt;&quot;Yes&quot;?" style="rhombus;whiteSpace=wrap;html=1;" parent="1" vertex="1">
          <mxGeometry x="90" y="1151.25" width="140" height="105.5" as="geometry" />
        </mxCell>
        <mxCell id="MGW0zBob_JRBG9ysVH5K-17" value="DISPLAY&lt;br&gt;Menu" style="rounded=0;whiteSpace=wrap;html=1;" parent="1" vertex="1">
          <mxGeometry x="-350" y="1174.25" width="120" height="60" as="geometry" />
        </mxCell>
        <mxCell id="MGW0zBob_JRBG9ysVH5K-18" value="DISPLAY &lt;br&gt;Menu" style="rounded=0;whiteSpace=wrap;html=1;" parent="1" vertex="1">
          <mxGeometry x="324" y="1174.25" width="120" height="60" as="geometry" />
        </mxCell>
        <mxCell id="Im-mvRvTY1rOUcPA_kaz-8" style="edgeStyle=orthogonalEdgeStyle;rounded=0;orthogonalLoop=1;jettySize=auto;html=1;exitX=0.5;exitY=1;exitDx=0;exitDy=0;entryX=0.5;entryY=0;entryDx=0;entryDy=0;" parent="1" source="Im-mvRvTY1rOUcPA_kaz-3" target="Im-mvRvTY1rOUcPA_kaz-7" edge="1">
          <mxGeometry relative="1" as="geometry" />
        </mxCell>
        <mxCell id="Im-mvRvTY1rOUcPA_kaz-3" value="INPUT&lt;br&gt;PartNumber" style="shape=parallelogram;html=1;strokeWidth=2;perimeter=parallelogramPerimeter;whiteSpace=wrap;rounded=1;arcSize=12;size=0.23;" parent="1" vertex="1">
          <mxGeometry x="90" y="1332.25" width="140" height="60" as="geometry" />
        </mxCell>
        <mxCell id="Im-mvRvTY1rOUcPA_kaz-6" value="DISPLAY&lt;br&gt;BookInDate" style="rounded=0;whiteSpace=wrap;html=1;" parent="1" vertex="1">
          <mxGeometry x="-130" y="1332.25" width="120" height="60" as="geometry" />
        </mxCell>
        <mxCell id="Im-mvRvTY1rOUcPA_kaz-7" value="DISPLAY&lt;br&gt;OrderDate" style="rounded=0;whiteSpace=wrap;html=1;" parent="1" vertex="1">
          <mxGeometry x="100" y="1472.25" width="120" height="60" as="geometry" />
        </mxCell>
      </root>
    </mxGraphModel>
  </diagram>
  <diagram id="YROIuYOgdIkdUv_h3v9y" name="Use Case Diagram">
    <mxGraphModel dx="1426" dy="1962" grid="1" gridSize="10" guides="1" tooltips="1" connect="1" arrows="1" fold="1" page="1" pageScale="1" pageWidth="827" pageHeight="1169" math="0" shadow="0">
      <root>
        <mxCell id="0" />
        <mxCell id="1" parent="0" />
        <mxCell id="Jn5gy4m6Dn-4RzXNnm80-6" style="rounded=0;orthogonalLoop=1;jettySize=auto;html=1;exitX=0.5;exitY=0.5;exitDx=0;exitDy=0;exitPerimeter=0;entryX=0;entryY=0.5;entryDx=0;entryDy=0;" edge="1" parent="1" source="iivOj13DiGPCVjuJjFY6-1" target="Jn5gy4m6Dn-4RzXNnm80-3">
          <mxGeometry relative="1" as="geometry" />
        </mxCell>
        <mxCell id="f0pXLc8ne8UzK6zNkqAf-3" style="edgeStyle=orthogonalEdgeStyle;rounded=0;orthogonalLoop=1;jettySize=auto;html=1;exitX=0.5;exitY=0.5;exitDx=0;exitDy=0;exitPerimeter=0;entryX=0;entryY=0.5;entryDx=0;entryDy=0;" edge="1" parent="1" source="iivOj13DiGPCVjuJjFY6-1" target="f0pXLc8ne8UzK6zNkqAf-2">
          <mxGeometry relative="1" as="geometry" />
        </mxCell>
        <mxCell id="iivOj13DiGPCVjuJjFY6-1" value="Client" style="shape=umlActor;verticalLabelPosition=bottom;verticalAlign=top;html=1;" parent="1" vertex="1">
          <mxGeometry x="120" y="250" width="30" height="60" as="geometry" />
        </mxCell>
        <mxCell id="iivOj13DiGPCVjuJjFY6-2" value="Car Parts for Special Cars" style="shape=umlFrame;whiteSpace=wrap;html=1;pointerEvents=0;width=80;height=40;" parent="1" vertex="1">
          <mxGeometry x="230" y="-100" width="470" height="740" as="geometry" />
        </mxCell>
        <mxCell id="P-NEQLfdSzOIX9EF9Juo-4" style="rounded=0;orthogonalLoop=1;jettySize=auto;html=1;exitX=1;exitY=1;exitDx=0;exitDy=0;entryX=0;entryY=0;entryDx=0;entryDy=0;" edge="1" parent="1" source="Jn5gy4m6Dn-4RzXNnm80-3" target="P-NEQLfdSzOIX9EF9Juo-3">
          <mxGeometry relative="1" as="geometry" />
        </mxCell>
        <mxCell id="Jn5gy4m6Dn-4RzXNnm80-3" value="Make Booking" style="ellipse;whiteSpace=wrap;html=1;" vertex="1" parent="1">
          <mxGeometry x="249" y="80" width="120" height="60" as="geometry" />
        </mxCell>
        <mxCell id="Jn5gy4m6Dn-4RzXNnm80-5" value="Order Parts" style="ellipse;whiteSpace=wrap;html=1;" vertex="1" parent="1">
          <mxGeometry x="240" y="500" width="120" height="60" as="geometry" />
        </mxCell>
        <mxCell id="Jn5gy4m6Dn-4RzXNnm80-7" style="rounded=0;orthogonalLoop=1;jettySize=auto;html=1;exitX=0.5;exitY=0.5;exitDx=0;exitDy=0;exitPerimeter=0;entryX=0;entryY=0.5;entryDx=0;entryDy=0;" edge="1" parent="1" source="iivOj13DiGPCVjuJjFY6-1" target="Jn5gy4m6Dn-4RzXNnm80-5">
          <mxGeometry relative="1" as="geometry">
            <mxPoint x="145" y="290" as="sourcePoint" />
            <mxPoint x="250" y="190" as="targetPoint" />
          </mxGeometry>
        </mxCell>
        <mxCell id="f0pXLc8ne8UzK6zNkqAf-7" style="rounded=0;orthogonalLoop=1;jettySize=auto;html=1;exitX=1;exitY=1;exitDx=0;exitDy=0;entryX=0;entryY=0.5;entryDx=0;entryDy=0;" edge="1" parent="1" source="f0pXLc8ne8UzK6zNkqAf-2" target="f0pXLc8ne8UzK6zNkqAf-5">
          <mxGeometry relative="1" as="geometry" />
        </mxCell>
        <mxCell id="f0pXLc8ne8UzK6zNkqAf-8" style="rounded=0;orthogonalLoop=1;jettySize=auto;html=1;exitX=1;exitY=0;exitDx=0;exitDy=0;entryX=0;entryY=0.5;entryDx=0;entryDy=0;" edge="1" parent="1" source="f0pXLc8ne8UzK6zNkqAf-2" target="f0pXLc8ne8UzK6zNkqAf-6">
          <mxGeometry relative="1" as="geometry" />
        </mxCell>
        <mxCell id="f0pXLc8ne8UzK6zNkqAf-2" value="Log in" style="ellipse;whiteSpace=wrap;html=1;" vertex="1" parent="1">
          <mxGeometry x="240" y="250" width="120" height="60" as="geometry" />
        </mxCell>
        <mxCell id="f0pXLc8ne8UzK6zNkqAf-5" value="Enter Password" style="ellipse;whiteSpace=wrap;html=1;" vertex="1" parent="1">
          <mxGeometry x="369" y="290" width="90" height="50" as="geometry" />
        </mxCell>
        <mxCell id="f0pXLc8ne8UzK6zNkqAf-6" value="Enter username" style="ellipse;whiteSpace=wrap;html=1;" vertex="1" parent="1">
          <mxGeometry x="369" y="220" width="90" height="50" as="geometry" />
        </mxCell>
        <mxCell id="f0pXLc8ne8UzK6zNkqAf-9" value="Enter Part Number" style="ellipse;whiteSpace=wrap;html=1;" vertex="1" parent="1">
          <mxGeometry x="390" y="470" width="90" height="50" as="geometry" />
        </mxCell>
        <mxCell id="f0pXLc8ne8UzK6zNkqAf-10" value="Enter Car Make" style="ellipse;whiteSpace=wrap;html=1;" vertex="1" parent="1">
          <mxGeometry x="520" y="500" width="90" height="50" as="geometry" />
        </mxCell>
        <mxCell id="f0pXLc8ne8UzK6zNkqAf-11" value="Enter Car Model" style="ellipse;whiteSpace=wrap;html=1;" vertex="1" parent="1">
          <mxGeometry x="520" y="430" width="90" height="50" as="geometry" />
        </mxCell>
        <mxCell id="f0pXLc8ne8UzK6zNkqAf-13" style="rounded=0;orthogonalLoop=1;jettySize=auto;html=1;exitX=1;exitY=0;exitDx=0;exitDy=0;entryX=0;entryY=0.5;entryDx=0;entryDy=0;" edge="1" parent="1" source="f0pXLc8ne8UzK6zNkqAf-9" target="f0pXLc8ne8UzK6zNkqAf-11">
          <mxGeometry relative="1" as="geometry">
            <mxPoint x="145" y="290" as="sourcePoint" />
            <mxPoint x="250" y="540" as="targetPoint" />
          </mxGeometry>
        </mxCell>
        <mxCell id="f0pXLc8ne8UzK6zNkqAf-14" style="rounded=0;orthogonalLoop=1;jettySize=auto;html=1;exitX=1;exitY=0;exitDx=0;exitDy=0;entryX=0;entryY=0.5;entryDx=0;entryDy=0;" edge="1" parent="1" source="Jn5gy4m6Dn-4RzXNnm80-5" target="f0pXLc8ne8UzK6zNkqAf-9">
          <mxGeometry relative="1" as="geometry">
            <mxPoint x="352" y="519" as="sourcePoint" />
            <mxPoint x="400" y="445" as="targetPoint" />
          </mxGeometry>
        </mxCell>
        <mxCell id="f0pXLc8ne8UzK6zNkqAf-15" style="rounded=0;orthogonalLoop=1;jettySize=auto;html=1;exitX=1;exitY=1;exitDx=0;exitDy=0;entryX=0;entryY=0.5;entryDx=0;entryDy=0;" edge="1" parent="1" source="f0pXLc8ne8UzK6zNkqAf-9" target="f0pXLc8ne8UzK6zNkqAf-10">
          <mxGeometry relative="1" as="geometry">
            <mxPoint x="362" y="529" as="sourcePoint" />
            <mxPoint x="410" y="455" as="targetPoint" />
          </mxGeometry>
        </mxCell>
        <mxCell id="P-NEQLfdSzOIX9EF9Juo-1" value="Enter Car Make" style="ellipse;whiteSpace=wrap;html=1;" vertex="1" parent="1">
          <mxGeometry x="380" y="30" width="90" height="50" as="geometry" />
        </mxCell>
        <mxCell id="P-NEQLfdSzOIX9EF9Juo-2" style="rounded=0;orthogonalLoop=1;jettySize=auto;html=1;exitX=1;exitY=0;exitDx=0;exitDy=0;entryX=0;entryY=1;entryDx=0;entryDy=0;" edge="1" parent="1" source="Jn5gy4m6Dn-4RzXNnm80-3" target="P-NEQLfdSzOIX9EF9Juo-1">
          <mxGeometry relative="1" as="geometry">
            <mxPoint x="354" y="119.5" as="sourcePoint" />
            <mxPoint x="459" y="119.5" as="targetPoint" />
          </mxGeometry>
        </mxCell>
        <mxCell id="P-NEQLfdSzOIX9EF9Juo-3" value="Enter Car Model" style="ellipse;whiteSpace=wrap;html=1;" vertex="1" parent="1">
          <mxGeometry x="380" y="130" width="90" height="50" as="geometry" />
        </mxCell>
      </root>
    </mxGraphModel>
  </diagram>
  <diagram id="0IhZmJs-F_lBnZMXhqg6" name="Entity Relationship Diagram">
    <mxGraphModel dx="1426" dy="1962" grid="1" gridSize="10" guides="1" tooltips="1" connect="1" arrows="1" fold="1" page="1" pageScale="1" pageWidth="827" pageHeight="1169" math="0" shadow="0">
      <root>
        <mxCell id="0" />
        <mxCell id="1" parent="0" />
        <mxCell id="B9WvrhRc7JhfDQs7LCkT-1" value="Parts" style="swimlane;childLayout=stackLayout;horizontal=1;startSize=50;horizontalStack=0;rounded=1;fontSize=14;fontStyle=0;strokeWidth=2;resizeParent=0;resizeLast=1;shadow=0;dashed=0;align=center;arcSize=4;whiteSpace=wrap;html=1;" parent="1" vertex="1">
          <mxGeometry x="110" y="-180" width="150" height="180" as="geometry" />
        </mxCell>
        <mxCell id="B9WvrhRc7JhfDQs7LCkT-2" value="-PartNumber&lt;br&gt;-CarMake&lt;br&gt;-CarModel&lt;br&gt;-OrderDate&lt;br&gt;-DeliveryDate&lt;br&gt;-DeliveryAddress&lt;br&gt;-OrderCost&lt;br&gt;-PaymentReceived" style="align=left;strokeColor=none;fillColor=none;spacingLeft=4;fontSize=12;verticalAlign=top;resizable=0;rotatable=0;part=1;html=1;" parent="B9WvrhRc7JhfDQs7LCkT-1" vertex="1">
          <mxGeometry y="50" width="150" height="130" as="geometry" />
        </mxCell>
        <mxCell id="B9WvrhRc7JhfDQs7LCkT-3" value="Client" style="swimlane;childLayout=stackLayout;horizontal=1;startSize=50;horizontalStack=0;rounded=1;fontSize=14;fontStyle=0;strokeWidth=2;resizeParent=0;resizeLast=1;shadow=0;dashed=0;align=center;arcSize=4;whiteSpace=wrap;html=1;" parent="1" vertex="1">
          <mxGeometry x="660" y="-180" width="160" height="120" as="geometry" />
        </mxCell>
        <mxCell id="B9WvrhRc7JhfDQs7LCkT-4" value="-Title&lt;br&gt;-Name&lt;br&gt;-Address&lt;br&gt;-Mobile" style="align=left;strokeColor=none;fillColor=none;spacingLeft=4;fontSize=12;verticalAlign=top;resizable=0;rotatable=0;part=1;html=1;" parent="B9WvrhRc7JhfDQs7LCkT-3" vertex="1">
          <mxGeometry y="50" width="160" height="70" as="geometry" />
        </mxCell>
        <mxCell id="quuIpHBeHzS23Vyan22H-1" value="Car" style="swimlane;childLayout=stackLayout;horizontal=1;startSize=50;horizontalStack=0;rounded=1;fontSize=14;fontStyle=0;strokeWidth=2;resizeParent=0;resizeLast=1;shadow=0;dashed=0;align=center;arcSize=4;whiteSpace=wrap;html=1;" parent="1" vertex="1">
          <mxGeometry x="110" y="110" width="160" height="120" as="geometry" />
        </mxCell>
        <mxCell id="quuIpHBeHzS23Vyan22H-2" value="-CarRegistration&lt;br&gt;-CarModel&lt;br&gt;-CarMake" style="align=left;strokeColor=none;fillColor=none;spacingLeft=4;fontSize=12;verticalAlign=top;resizable=0;rotatable=0;part=1;html=1;" parent="quuIpHBeHzS23Vyan22H-1" vertex="1">
          <mxGeometry y="50" width="160" height="70" as="geometry" />
        </mxCell>
        <mxCell id="quuIpHBeHzS23Vyan22H-3" value="Booking" style="swimlane;childLayout=stackLayout;horizontal=1;startSize=50;horizontalStack=0;rounded=1;fontSize=14;fontStyle=0;strokeWidth=2;resizeParent=0;resizeLast=1;shadow=0;dashed=0;align=center;arcSize=4;whiteSpace=wrap;html=1;" parent="1" vertex="1">
          <mxGeometry x="660" y="110" width="160" height="120" as="geometry" />
        </mxCell>
        <mxCell id="quuIpHBeHzS23Vyan22H-4" value="-Date&lt;br&gt;-Time&lt;br&gt;-Cost&lt;br&gt;-Issues" style="align=left;strokeColor=none;fillColor=none;spacingLeft=4;fontSize=12;verticalAlign=top;resizable=0;rotatable=0;part=1;html=1;" parent="quuIpHBeHzS23Vyan22H-3" vertex="1">
          <mxGeometry y="50" width="160" height="70" as="geometry" />
        </mxCell>
        <mxCell id="s0xgF_xYbgxEdb-FhnKZ-4" value="Garage" style="swimlane;childLayout=stackLayout;horizontal=1;startSize=50;horizontalStack=0;rounded=1;fontSize=14;fontStyle=0;strokeWidth=2;resizeParent=0;resizeLast=1;shadow=0;dashed=0;align=center;arcSize=4;whiteSpace=wrap;html=1;" vertex="1" parent="1">
          <mxGeometry x="390" y="-10" width="160" height="120" as="geometry" />
        </mxCell>
        <mxCell id="s0xgF_xYbgxEdb-FhnKZ-5" value="-Location&lt;br&gt;-AvailableSlots" style="align=left;strokeColor=none;fillColor=none;spacingLeft=4;fontSize=12;verticalAlign=top;resizable=0;rotatable=0;part=1;html=1;" vertex="1" parent="s0xgF_xYbgxEdb-FhnKZ-4">
          <mxGeometry y="50" width="160" height="70" as="geometry" />
        </mxCell>
        <mxCell id="s0xgF_xYbgxEdb-FhnKZ-6" value="" style="edgeStyle=orthogonalEdgeStyle;fontSize=12;html=1;endArrow=ERmany;rounded=0;entryX=1;entryY=0.25;entryDx=0;entryDy=0;exitX=0.5;exitY=1;exitDx=0;exitDy=0;" edge="1" parent="1" source="s0xgF_xYbgxEdb-FhnKZ-5" target="quuIpHBeHzS23Vyan22H-2">
          <mxGeometry width="100" height="100" relative="1" as="geometry">
            <mxPoint x="310" y="310" as="sourcePoint" />
            <mxPoint x="410" y="210" as="targetPoint" />
          </mxGeometry>
        </mxCell>
        <mxCell id="s0xgF_xYbgxEdb-FhnKZ-7" value="" style="edgeStyle=orthogonalEdgeStyle;fontSize=12;html=1;endArrow=ERmany;rounded=0;entryX=1;entryY=0.25;entryDx=0;entryDy=0;exitX=0.5;exitY=0;exitDx=0;exitDy=0;" edge="1" parent="1" source="s0xgF_xYbgxEdb-FhnKZ-4" target="B9WvrhRc7JhfDQs7LCkT-2">
          <mxGeometry width="100" height="100" relative="1" as="geometry">
            <mxPoint x="480" y="120" as="sourcePoint" />
            <mxPoint x="280" y="188" as="targetPoint" />
          </mxGeometry>
        </mxCell>
        <mxCell id="s0xgF_xYbgxEdb-FhnKZ-8" value="" style="edgeStyle=orthogonalEdgeStyle;fontSize=12;html=1;endArrow=ERmany;rounded=0;entryX=0.5;entryY=0;entryDx=0;entryDy=0;exitX=0.5;exitY=1;exitDx=0;exitDy=0;" edge="1" parent="1" source="B9WvrhRc7JhfDQs7LCkT-4" target="quuIpHBeHzS23Vyan22H-3">
          <mxGeometry width="100" height="100" relative="1" as="geometry">
            <mxPoint x="480" y="120" as="sourcePoint" />
            <mxPoint x="280" y="188" as="targetPoint" />
          </mxGeometry>
        </mxCell>
        <mxCell id="s0xgF_xYbgxEdb-FhnKZ-9" value="" style="fontSize=12;html=1;endArrow=ERmany;startArrow=ERmany;rounded=0;exitX=1;exitY=0;exitDx=0;exitDy=0;entryX=0;entryY=0;entryDx=0;entryDy=0;" edge="1" parent="1" source="B9WvrhRc7JhfDQs7LCkT-2" target="B9WvrhRc7JhfDQs7LCkT-4">
          <mxGeometry width="100" height="100" relative="1" as="geometry">
            <mxPoint x="260" y="-110" as="sourcePoint" />
            <mxPoint x="590" y="-90" as="targetPoint" />
          </mxGeometry>
        </mxCell>
        <mxCell id="s0xgF_xYbgxEdb-FhnKZ-10" value="" style="edgeStyle=orthogonalEdgeStyle;fontSize=12;html=1;endArrow=ERmany;rounded=0;entryX=0;entryY=0.5;entryDx=0;entryDy=0;exitX=1;exitY=0.25;exitDx=0;exitDy=0;" edge="1" parent="1" source="s0xgF_xYbgxEdb-FhnKZ-5" target="quuIpHBeHzS23Vyan22H-4">
          <mxGeometry width="100" height="100" relative="1" as="geometry">
            <mxPoint x="570" y="80" as="sourcePoint" />
            <mxPoint x="570" y="250" as="targetPoint" />
          </mxGeometry>
        </mxCell>
      </root>
    </mxGraphModel>
  </diagram>
  <diagram id="X23FqH5HyukSGmazxiz-" name="Data Flow Diagram">
    <mxGraphModel dx="1426" dy="793" grid="1" gridSize="10" guides="1" tooltips="1" connect="1" arrows="1" fold="1" page="1" pageScale="1" pageWidth="827" pageHeight="1169" math="0" shadow="0">
      <root>
        <mxCell id="0" />
        <mxCell id="1" parent="0" />
      </root>
    </mxGraphModel>
  </diagram>
</mxfile>
